<?xml version="1.0" encoding="utf-8"?>
<!-- Generator: Adobe Illustrator 25.4.1, SVG Export Plug-In . SVG Version: 6.00 Build 0)  -->
<svg version="1.1" id="Layer_1" xmlns:serif="http://www.serif.com/"
	 xmlns="http://www.w3.org/2000/svg" xmlns:xlink="http://www.w3.org/1999/xlink" x="0px" y="0px" viewBox="0 0 1080 273.7"
	 style="enable-background:new 0 0 1080 273.7;" xml:space="preserve">
<style type="text/css">
	.st0{fill:#FFFFFF;}
</style>
<g transform="matrix(1,0,0,1,-138.462,-287.425)">
	<path class="st0" d="M138.5,327.9h42.2v153.8h78.1v39H138.5V327.9z M277.5,390H318v130.6h-40.6V390z M297.8,325
		c12.9,0,23.5,10.6,23.5,23.5c0,12.9-10.6,23.5-23.5,23.5c-12.9,0-23.5-10.6-23.5-23.5S284.9,325,297.8,325
		C297.8,325,297.8,325,297.8,325 M487.7,327.9h40.6v115.2l46-53.2h49.7l-53.2,60.5l52.1,70.2h-51l-43-64.6h-0.5v64.5h-40.6
		L487.7,327.9z M340.5,390h38.9v17.8h0.6c7.9-13.6,22.7-21.7,38.4-21.1c41.1,0,48.7,27.1,48.7,62.2v71.6h-40.6v-63.5
		c0-15.2-0.3-34.6-21.1-34.6c-21.1,0-24.3,16.5-24.3,33.5v64.6h-40.6L340.5,390z"/>
	<path class="st0" d="M709.3,440.1c0-0.2,0-0.4,0-0.6c0-13.3-11-24.3-24.3-24.3c-0.2,0-0.4,0-0.6,0c-14.6-0.9-27.5,10.2-28.7,24.9
		H709.3z M743.7,498c-13.6,16.5-34,26.1-55.5,26c-40.6,0-73-27.1-73-69s32.5-69,73-69c37.9,0,61.7,27,61.7,69v12.7h-94.1
		c2.4,14.8,15.5,25.8,30.6,25.4c11.7-0.1,22.6-6.1,28.9-16L743.7,498z M834.4,421.5c-20.3,0-32.4,13.5-32.4,33.3
		c0,19.7,12.2,33.3,32.4,33.3c20.3,0,32.5-13.5,32.5-33.3C866.9,435,854.7,421.5,834.4,421.5 M904.2,520.5h-37.3v-17.3h-0.6
		c-9.5,12.8-24.4,20.4-40.3,20.6c-39,0-64.6-28.1-64.6-67.9c0-36.5,22.7-70.1,60.1-70.1c16.8,0,32.5,4.6,41.7,17.3h0.5v-75.3h40.6
		L904.2,520.5z M1178,520.6h-40.6v-63.5c0-15.1-0.3-34.6-21.1-34.6c-21.1,0-24.4,16.5-24.4,33.5v64.6h-40.6V390h38.9v17.8h0.5
		c7.9-13.6,22.7-21.7,38.4-21.1c41.1,0,48.7,27,48.7,62.2L1178,520.6z M1005.7,372.2C1005.7,372.2,1005.7,372.2,1005.7,372.2
		c-12.9,0-23.5-10.6-23.5-23.5c0-12.9,10.6-23.5,23.5-23.5c12.9,0,23.5,10.6,23.5,23.5c0,0,0,0,0,0
		C1029.2,361.5,1018.6,372.2,1005.7,372.2 M1025.9,520.6h-40.6V390h40.6V520.6z M1198.2,287.4H965c-10.9-0.1-20.1,8.8-20.2,19.7
		v234.2c0.1,11,9.2,19.9,20.2,19.7h233.2c11,0.1,20.1-8.8,20.3-19.7V307.2C1218.3,296.2,1209.2,287.3,1198.2,287.4"/>
</g>
</svg>
