<?xml version="1.0" encoding="utf-8"?>
<!-- Generator: Adobe Illustrator 25.4.1, SVG Export Plug-In . SVG Version: 6.00 Build 0)  -->
<svg version="1.1" id="Layer_1" xmlns="http://www.w3.org/2000/svg" xmlns:xlink="http://www.w3.org/1999/xlink" x="0px" y="0px"
	 viewBox="0 0 810.1 599.6" style="enable-background:new 0 0 810.1 599.6;" xml:space="preserve">
<style type="text/css">
	.st0{fill:#FFB09C;}
	.st1{fill:#086EA1;}
	.st2{fill:#E6E6E6;}
	.st3{fill:#2F2E41;}
	.st4{fill:#3F3D56;}
	.st5{fill:#FFFFFF;}
	.st6{fill:#E4E4E4;}
	.st7{fill:#F0F0F0;}
	.st8{fill:#CACACA;}
</style>
<path class="st0" d="M236.4,59l8.6,13.4l30.5-15.1l15.7-4.8c6.4-2,10.1-8.8,8.1-15.2c-0.6-2-1.8-3.8-3.3-5.3l0,0
	c-4.8-4.5-12.3-4.4-16.9,0.2l-13.2,13L236.4,59z"/>
<path class="st1" d="M250.8,71.8l-11.4-17.8l-43.3,19c-6.3,2.8-10.7,8.7-11.6,15.5l0,0c-1.1,8.5,3.5,16.8,11.2,20.4l69,31
	c9.9,4.6,21.7,0.5,26.5-9.3l0,0c4.9-10,0.8-22-9.1-27c-0.6-0.3-1.3-0.6-2-0.9l-51.8-17.9L250.8,71.8z"/>
<path class="st2" d="M707.7,374.7c0-5.4-1.8-9.7-4-9.7H101.2c-2.2,0-4,4.4-4,9.7v220.6c0,1-0.8,1.9-1.8,2c-1.6,0.2-3.2,0.3-4.9,0.4
	c0,0-0.1,0-0.1,0c-0.9,0.1-1.8,0.1-2.6,0.2h0c-0.5-0.8-0.9-1.7-1.3-2.5c-0.1-0.3-0.2-0.6-0.2-0.9V362.1c0-1.5,0.1-3,0.2-4.4
	c0.1-2,0.4-4,0.8-6c1.7-9.3,5.5-15.6,9.9-15.6h611c0.6,0,1.3,0.1,1.8,0.4c0.9,0.4,1.6,0.9,2.3,1.6c0.9,0.9,1.6,1.9,2.2,3
	c2.1,3.8,3.7,9.4,4.2,15.9c0,0.1,0,0.1,0,0.2c0.1,1.6,0.2,3.3,0.2,4.9l0.1,21.4l0.1,12.8l0.3,40.1l0.1,14.2l0.4,146.2l0,0
	c0,1.1-0.9,2-2,2h-8c-1.1,0-2-0.9-2-2L707.7,374.7z"/>
<polygon class="st0" points="101.5,484 88.5,481.6 91.3,430.5 110.5,434 "/>
<path class="st3" d="M99.5,497.6l-39.9-7.2l0.1-0.5c1.5-8.6,9.7-14.3,18.3-12.7l0,0l8.3-4.2l12.6,8l3.5,0.6L99.5,497.6z"/>
<path class="st4" d="M415.9,430h-79.5c-4.4,0-8-3.6-8-8v-72.7c0-4.4,3.6-8,8-8h79.5c4.4,0,8,3.6,8,8V422
	C423.9,426.4,420.3,430,415.9,430z"/>
<path class="st5" d="M410.3,423.3H342c-3.9,0-7.1-3.2-7.1-7.1V355c0-3.9,3.2-7.1,7.1-7.1h68.3c3.9,0,7.1,3.2,7.1,7.1v61.1
	C417.4,420.1,414.2,423.3,410.3,423.3z"/>
<path class="st1" d="M403.5,365.7h-54.7c-1,0-1.8-0.8-1.8-1.8s0.8-1.8,1.8-1.8c0,0,0,0,0,0h54.7c1,0,1.8,0.8,1.8,1.8
	S404.5,365.7,403.5,365.7C403.5,365.7,403.5,365.7,403.5,365.7z"/>
<path class="st1" d="M403.5,372.8h-54.7c-1,0-1.8-0.8-1.8-1.8c0-1,0.8-1.8,1.8-1.8h54.7c1,0,1.8,0.8,1.8,1.8
	C405.3,372,404.5,372.8,403.5,372.8z"/>
<path class="st1" d="M372.5,379.8h-23.7c-1,0-1.8-0.8-1.8-1.8c0-1,0.8-1.8,1.8-1.8h23.7c1,0,1.8,0.8,1.8,1.8
	C374.3,379,373.5,379.8,372.5,379.8z"/>
<path class="st6" d="M403.5,394.6h-54.7c-1,0-1.8-0.8-1.8-1.8s0.8-1.8,1.8-1.8c0,0,0,0,0,0h54.7c1,0,1.8,0.8,1.8,1.8
	S404.5,394.6,403.5,394.6C403.5,394.6,403.5,394.6,403.5,394.6z"/>
<path class="st6" d="M403.5,401.6h-54.7c-1,0-1.8-0.8-1.8-1.8c0-1,0.8-1.8,1.8-1.8c0,0,0,0,0,0h54.7c1,0,1.8,0.8,1.8,1.8
	C405.3,400.8,404.5,401.6,403.5,401.6z"/>
<path class="st6" d="M372.5,408.7h-23.7c-1,0-1.8-0.8-1.8-1.8c0-1,0.8-1.8,1.8-1.8h23.7c1,0,1.8,0.8,1.8,1.8
	C374.3,407.9,373.5,408.7,372.5,408.7z"/>
<path class="st3" d="M544,235.7h-64.9c-1.9,0-3.5,1.6-3.5,3.5v102.6h71.8V239.2C547.5,237.3,545.9,235.7,544,235.7
	C544,235.7,544,235.7,544,235.7z M511.8,294c-4.2,0-7.6-3.4-7.7-7.7v-11.8c0-4.2,3.4-7.7,7.7-7.7s7.7,3.4,7.7,7.7v11.8
	C519.4,290.6,516,294,511.8,294L511.8,294z"/>
<path class="st4" d="M475.4,338.5v9.9c0,1.1,0.9,1.9,1.9,1.9h68.4c1.1,0,1.9-0.9,1.9-1.9v-9.9H475.4z"/>
<path class="st4" d="M651.5,75.7H374c-5,0-9,4-9,9v187.3c0,5,4,9,9,9h277.5c5,0,9-4,9-9V84.7C660.5,79.7,656.5,75.7,651.5,75.7z"/>
<path class="st5" d="M649.2,82.2H376.3c-2.7,0-4.8,2.2-4.8,4.8v182.6c0,2.7,2.2,4.8,4.8,4.8h272.9c2.7,0,4.8-2.2,4.8-4.8V87
	C654,84.4,651.8,82.2,649.2,82.2z"/>
<path class="st3" d="M596,353.8H433.7c-1.6,0-3-1.3-3-3c0-0.2,0-0.4,0.1-0.6l2.5-12c0.3-1.4,1.5-2.4,2.9-2.4h157.3
	c1.4,0,2.6,1,2.9,2.4l2.5,12c0.3,1.6-0.7,3.2-2.3,3.5C596.5,353.7,596.2,353.8,596,353.8L596,353.8z"/>
<path class="st4" d="M437.9,338h4c0.3,0,0.5,0.2,0.5,0.5v2c0,0.3-0.2,0.5-0.5,0.5h-4c-0.3,0-0.5-0.2-0.5-0.5v-2
	C437.4,338.2,437.6,338,437.9,338z"/>
<path class="st4" d="M447.9,338h4c0.3,0,0.5,0.2,0.5,0.5v2c0,0.3-0.2,0.5-0.5,0.5h-4c-0.3,0-0.5-0.2-0.5-0.5v-2
	C447.4,338.2,447.6,338,447.9,338z"/>
<path class="st4" d="M457.9,338h4c0.3,0,0.5,0.2,0.5,0.5v2c0,0.3-0.2,0.5-0.5,0.5h-4c-0.3,0-0.5-0.2-0.5-0.5v-2
	C457.4,338.2,457.6,338,457.9,338z"/>
<path class="st4" d="M467.9,338h4c0.3,0,0.5,0.2,0.5,0.5v2c0,0.3-0.2,0.5-0.5,0.5h-4c-0.3,0-0.5-0.2-0.5-0.5v-2
	C467.4,338.2,467.6,338,467.9,338z"/>
<path class="st4" d="M477.9,338h4c0.3,0,0.5,0.2,0.5,0.5v2c0,0.3-0.2,0.5-0.5,0.5h-4c-0.3,0-0.5-0.2-0.5-0.5v-2
	C477.4,338.2,477.6,338,477.9,338z"/>
<path class="st4" d="M487.9,338h4c0.3,0,0.5,0.2,0.5,0.5v2c0,0.3-0.2,0.5-0.5,0.5h-4c-0.3,0-0.5-0.2-0.5-0.5v-2
	C487.4,338.2,487.6,338,487.9,338z"/>
<path class="st4" d="M497.9,338h4c0.3,0,0.5,0.2,0.5,0.5v2c0,0.3-0.2,0.5-0.5,0.5h-4c-0.3,0-0.5-0.2-0.5-0.5v-2
	C497.4,338.2,497.6,338,497.9,338z"/>
<path class="st4" d="M507.9,338h4c0.3,0,0.5,0.2,0.5,0.5v2c0,0.3-0.2,0.5-0.5,0.5h-4c-0.3,0-0.5-0.2-0.5-0.5v-2
	C507.4,338.2,507.6,338,507.9,338z"/>
<path class="st4" d="M517.9,338h4c0.3,0,0.5,0.2,0.5,0.5v2c0,0.3-0.2,0.5-0.5,0.5h-4c-0.3,0-0.5-0.2-0.5-0.5v-2
	C517.4,338.2,517.6,338,517.9,338z"/>
<path class="st4" d="M527.9,338h4c0.3,0,0.5,0.2,0.5,0.5v2c0,0.3-0.2,0.5-0.5,0.5h-4c-0.3,0-0.5-0.2-0.5-0.5v-2
	C527.4,338.2,527.6,338,527.9,338z"/>
<path class="st4" d="M537.9,338h4c0.3,0,0.5,0.2,0.5,0.5v2c0,0.3-0.2,0.5-0.5,0.5h-4c-0.3,0-0.5-0.2-0.5-0.5v-2
	C537.4,338.2,537.6,338,537.9,338z"/>
<path class="st4" d="M547.9,338h4c0.3,0,0.5,0.2,0.5,0.5v2c0,0.3-0.2,0.5-0.5,0.5h-4c-0.3,0-0.5-0.2-0.5-0.5v-2
	C547.4,338.2,547.6,338,547.9,338z"/>
<path class="st4" d="M557.9,338h4c0.3,0,0.5,0.2,0.5,0.5v2c0,0.3-0.2,0.5-0.5,0.5h-4c-0.3,0-0.5-0.2-0.5-0.5v-2
	C557.4,338.2,557.6,338,557.9,338z"/>
<path class="st4" d="M567.9,338h4c0.3,0,0.5,0.2,0.5,0.5v2c0,0.3-0.2,0.5-0.5,0.5h-4c-0.3,0-0.5-0.2-0.5-0.5v-2
	C567.4,338.2,567.6,338,567.9,338z"/>
<path class="st4" d="M577.9,338h4c0.3,0,0.5,0.2,0.5,0.5v2c0,0.3-0.2,0.5-0.5,0.5h-4c-0.3,0-0.5-0.2-0.5-0.5v-2
	C577.4,338.2,577.6,338,577.9,338z"/>
<path class="st4" d="M587.9,338h4c0.3,0,0.5,0.2,0.5,0.5v2c0,0.3-0.2,0.5-0.5,0.5h-4c-0.3,0-0.5-0.2-0.5-0.5v-2
	C587.4,338.2,587.6,338,587.9,338z"/>
<path class="st4" d="M437.7,343h4c0.3,0,0.5,0.2,0.5,0.5v2c0,0.3-0.2,0.5-0.5,0.5h-4c-0.3,0-0.5-0.2-0.5-0.5v-2
	C437.3,343.2,437.5,343,437.7,343z"/>
<path class="st4" d="M447.7,343h4c0.3,0,0.5,0.2,0.5,0.5v2c0,0.3-0.2,0.5-0.5,0.5h-4c-0.3,0-0.5-0.2-0.5-0.5v-2
	C447.3,343.2,447.5,343,447.7,343z"/>
<path class="st4" d="M457.7,343h4c0.3,0,0.5,0.2,0.5,0.5v2c0,0.3-0.2,0.5-0.5,0.5h-4c-0.3,0-0.5-0.2-0.5-0.5v-2
	C457.3,343.2,457.5,343,457.7,343z"/>
<path class="st4" d="M467.7,343h4c0.3,0,0.5,0.2,0.5,0.5v2c0,0.3-0.2,0.5-0.5,0.5h-4c-0.3,0-0.5-0.2-0.5-0.5v-2
	C467.3,343.2,467.5,343,467.7,343z"/>
<path class="st4" d="M477.7,343h4c0.3,0,0.5,0.2,0.5,0.5v2c0,0.3-0.2,0.5-0.5,0.5h-4c-0.3,0-0.5-0.2-0.5-0.5v-2
	C477.3,343.2,477.5,343,477.7,343z"/>
<path class="st4" d="M487.7,343h4c0.3,0,0.5,0.2,0.5,0.5v2c0,0.3-0.2,0.5-0.5,0.5h-4c-0.3,0-0.5-0.2-0.5-0.5v-2
	C487.3,343.2,487.5,343,487.7,343z"/>
<path class="st4" d="M497.7,343h4c0.3,0,0.5,0.2,0.5,0.5v2c0,0.3-0.2,0.5-0.5,0.5h-4c-0.3,0-0.5-0.2-0.5-0.5v-2
	C497.3,343.2,497.5,343,497.7,343z"/>
<path class="st4" d="M507.7,343h4c0.3,0,0.5,0.2,0.5,0.5v2c0,0.3-0.2,0.5-0.5,0.5h-4c-0.3,0-0.5-0.2-0.5-0.5v-2
	C507.3,343.2,507.5,343,507.7,343z"/>
<path class="st4" d="M517.7,343h4c0.3,0,0.5,0.2,0.5,0.5v2c0,0.3-0.2,0.5-0.5,0.5h-4c-0.3,0-0.5-0.2-0.5-0.5v-2
	C517.3,343.2,517.5,343,517.7,343z"/>
<path class="st4" d="M527.7,343h4c0.3,0,0.5,0.2,0.5,0.5v2c0,0.3-0.2,0.5-0.5,0.5h-4c-0.3,0-0.5-0.2-0.5-0.5v-2
	C527.3,343.2,527.5,343,527.7,343z"/>
<path class="st4" d="M537.7,343h4c0.3,0,0.5,0.2,0.5,0.5v2c0,0.3-0.2,0.5-0.5,0.5h-4c-0.3,0-0.5-0.2-0.5-0.5v-2
	C537.3,343.2,537.5,343,537.7,343z"/>
<path class="st4" d="M547.7,343h4c0.3,0,0.5,0.2,0.5,0.5v2c0,0.3-0.2,0.5-0.5,0.5h-4c-0.3,0-0.5-0.2-0.5-0.5v-2
	C547.3,343.2,547.5,343,547.7,343z"/>
<path class="st4" d="M557.7,343h4c0.3,0,0.5,0.2,0.5,0.5v2c0,0.3-0.2,0.5-0.5,0.5h-4c-0.3,0-0.5-0.2-0.5-0.5v-2
	C557.3,343.2,557.5,343,557.7,343z"/>
<path class="st4" d="M567.7,343h4c0.3,0,0.5,0.2,0.5,0.5v2c0,0.3-0.2,0.5-0.5,0.5h-4c-0.3,0-0.5-0.2-0.5-0.5v-2
	C567.3,343.2,567.5,343,567.7,343z"/>
<path class="st4" d="M577.7,343h4c0.3,0,0.5,0.2,0.5,0.5v2c0,0.3-0.2,0.5-0.5,0.5h-4c-0.3,0-0.5-0.2-0.5-0.5v-2
	C577.3,343.2,577.5,343,577.7,343z"/>
<path class="st4" d="M587.7,343h4c0.3,0,0.5,0.2,0.5,0.5v2c0,0.3-0.2,0.5-0.5,0.5h-4c-0.3,0-0.5-0.2-0.5-0.5v-2
	C587.3,343.2,587.5,343,587.7,343z"/>
<path class="st4" d="M485.7,349h39c0.3,0,0.5,0.2,0.5,0.5v2c0,0.3-0.2,0.5-0.5,0.5h-39c-0.3,0-0.5-0.2-0.5-0.5v-2
	C485.3,349.2,485.5,349,485.7,349z"/>
<path class="st7" d="M630.4,582l-7.7-12.4l-1.5,7.1c-0.3,1.2-0.5,2.5-0.8,3.8c-2.2-1.9-4.5-3.6-6.8-5.3c-7-5.1-14-10.2-21-15.3
	l2.2,12.7c1.4,7.8,2.8,15.8,6.1,23c0.4,0.8,0.8,1.6,1.2,2.4h32.5c0.3-0.7,0.4-1.5,0.5-2.2c0,0,0-0.1,0-0.2
	C635.7,590.7,633,586.1,630.4,582z"/>
<path class="st7" d="M190.4,582l-7.7-12.4l-1.5,7.1c-0.3,1.2-0.5,2.5-0.8,3.8c-2.2-1.9-4.5-3.6-6.8-5.3c-7-5.1-14-10.2-21-15.3
	l2.2,12.7c1.4,7.8,2.8,15.8,6.1,23c0.4,0.8,0.8,1.6,1.2,2.4h32.5c0.3-0.7,0.4-1.5,0.5-2.2c0,0,0-0.1,0-0.2
	C195.7,590.7,193,586.1,190.4,582z"/>
<path class="st8" d="M808.9,599.3l-275.8,0.3c-0.7,0-1.2-0.5-1.2-1.2c0-0.7,0.5-1.2,1.2-1.2l275.8-0.3c0.7,0,1.2,0.5,1.2,1.2
	S809.6,599.3,808.9,599.3C808.9,599.3,808.9,599.3,808.9,599.3z"/>
<path class="st8" d="M635.5,107.3H380.2c-0.6,0-1-0.5-1-1c0-0.5,0.4-1,1-1h255.3c0.6,0,1,0.5,1,1C636.5,106.9,636,107.3,635.5,107.3
	z"/>
<ellipse class="st4" cx="397.5" cy="94.1" rx="6" ry="6.1"/>
<ellipse class="st4" cx="418.1" cy="94.1" rx="6" ry="6.1"/>
<ellipse class="st4" cx="438.6" cy="94.1" rx="6" ry="6.1"/>
<path class="st4" d="M623.1,89.5h-14.6c-0.6,0-1.1,0.5-1.1,1.1c0,0.6,0.5,1.1,1.1,1.1h14.6c0.6,0,1.1-0.5,1.1-1.1
	C624.2,90,623.7,89.5,623.1,89.5z"/>
<path class="st4" d="M623.1,93.6h-14.6c-0.6,0-1.1,0.5-1.1,1.1c0,0.6,0.5,1.1,1.1,1.1h14.6c0.6,0,1.1-0.5,1.1-1.1
	C624.2,94.1,623.7,93.6,623.1,93.6z"/>
<path class="st4" d="M623.1,97.8h-14.6c-0.6,0-1.1,0.5-1.1,1.1c0,0.6,0.5,1.1,1.1,1.1h14.6c0.6,0,1.1-0.5,1.1-1.1
	C624.2,98.3,623.7,97.8,623.1,97.8z"/>
<path class="st1" d="M496.5,162.7h31.9c2.4,0,4.3,1.9,4.3,4.3v0c0,2.4-1.9,4.3-4.3,4.3h-31.9c-2.4,0-4.3-1.9-4.3-4.3v0
	C492.2,164.6,494.1,162.7,496.5,162.7z"/>
<path class="st2" d="M475.9,180H549c2.4,0,4.3,1.9,4.3,4.3v0c0,2.4-1.9,4.3-4.3,4.3h-73.1c-2.4,0-4.3-1.9-4.3-4.3v0
	C471.6,182,473.5,180,475.9,180z"/>
<path class="st2" d="M475.9,197.4H549c2.4,0,4.3,1.9,4.3,4.3v0c0,2.4-1.9,4.3-4.3,4.3h-73.1c-2.4,0-4.3-1.9-4.3-4.3v0
	C471.6,199.3,473.5,197.4,475.9,197.4z"/>
<path class="st2" d="M406.3,264c0,3.6-0.6,7.1-1.9,10.5h-28c-2.7,0-4.8-2.2-4.8-4.8v-35.3c1.6-0.3,3.2-0.4,4.7-0.4
	C392.8,234,406.3,247.4,406.3,264C406.3,264,406.3,264,406.3,264z"/>
<path class="st3" d="M350.9,291.9c-0.4,12.1-26.3,44.9-39.9,49.6c-2.3,0.8-3.7,1.2-3.7,1.2l-4.7-1.4L245.4,324
	c-10,5.9-39.9,8.9-64.5,10.4c-19.5,1.2-35.7,1.4-35.7,1.4c-5.8,43.8-17.1,85.8-36.3,125.1l-23-4l21.7-146.3c1-6.5,5.7-11.7,12-13.4
	l156.3-40.9c0,0,8.6-1.6,26.8,7.2C332.7,277.9,351.2,283,350.9,291.9z"/>
<polygon class="st0" points="297.2,568 285.5,574 256.4,531.9 273.7,522.9 "/>
<path class="st3" d="M303.9,579.9L268,598.6l-0.2-0.5c-4-7.7-1-17.2,6.7-21.3l0,0l4-8.4l14.8-1.4l3.1-1.6L303.9,579.9z"/>
<path class="st3" d="M321,289.5c5.2,11-2.5,52-12.4,62.4l-2.6,1.8l-0.9,0.5c-5.9,20-69.5,78.7-69.5,78.7
	c21.5,27.4,34.9,61,43.4,98.4l-19.1,8.8L190,435.7c-3.7-5.6-3.7-12.9,0.2-18.4l28.5-40.6l46.5-90C298.4,285.6,317.2,281.5,321,289.5
	z"/>
<path class="st1" d="M349.3,296.1c-100.4-15.3-109.5-29-110.5-28.8l-0.9,0.2l14.5-24.6l5.3-6.3l-4.1-2.9l1.6-12.2
	c1.3-4.9,2.3-10.7,1.8-11.5c-1.1-1.3-3.7-3.5-3.7-3.6l-0.3-0.3l3.8-8.8l5.1-70.5l13.1-26l26.9-16l23.8,0.3l20.9,19.4
	c18.2,8.8,28.3,28.7,24.5,48.5l-10.6,56l-3.9,28.9l6.4,6.4l-4,4l-2.4,13.5L359,277c1.9,13.9-6.5,14.7-7.1,14.9c0,0-1.9,4.8-1.9,4.8
	C349.8,296.6,349.8,296.2,349.3,296.1z"/>
<path class="st0" d="M344,351.8c4.3-4.2,4.4-11.2,0.2-15.5c-0.5-0.5-0.9-0.9-1.5-1.3l11-37.4l-19.4,5.9l-7.5,34.6
	c-3.2,5.2-1.6,12,3.6,15.2C334.8,356,340.4,355.4,344,351.8L344,351.8z"/>
<path class="st1" d="M345.8,325.9l-20.9-9.4l16.8-69.7l-31.3-75.9c-5.8-14.1,0.9-30.3,15-36.1c1.6-0.6,3.2-1.1,4.8-1.5l0,0
	c14.9-3.1,29.6,6.4,32.7,21.4l19,90.5L345.8,325.9z"/>
<path class="st4" d="M263.2,59.6l7.6-31.8c0.5-2.3,2.8-3.7,5.1-3.1l6.9,1.7c2.3,0.5,3.7,2.8,3.1,5.1l-7.6,31.8
	c-0.5,2.3-2.8,3.7-5.1,3.1l-6.9-1.7C264,64.1,262.6,61.9,263.2,59.6z"/>
<path class="st1" d="M276.4,26.5c-1.2-0.3-2.4,0.5-2.7,1.7L266,60c-0.3,1.2,0.5,2.4,1.7,2.7l6.9,1.7c1.2,0.3,2.4-0.5,2.7-1.7
	l7.6-31.8c0.3-1.2-0.5-2.4-1.7-2.7L276.4,26.5z"/>
<circle class="st0" cx="308.4" cy="45.7" r="34"/>
<path class="st3" d="M324.1,68.4l1.2-6.9c1.5-9.4-3.4-18.6-12.1-22.5l-1-0.5l0.9-0.5c0.6-0.3,0.9-1.2,0.5-1.8
	c-0.3-0.5-0.8-0.8-1.3-0.7l-1,0.1c-1.9,0.2-3.7-1.1-3.9-3c-0.1-0.9,0.1-1.7,0.6-2.4c-3.4,1.4-7,2.2-10.7,2.3
	c-5.3,0-9.9-2.6-11.7-6.6c-0.4-1-0.7-2-0.8-3.1c-5.6,2.2-8.6,8.8-8.7,8.9l-1.7,3.7l0.7-4c0-0.1,2.2-12.2,5.3-19.7l0,0
	c3.4-8.1,17.5-12.3,38.6-11.6c20.7,0.6,25.2,24.2,25.6,26.5c5.9,5.6,3.7,16.3,1.9,22.2c-2.9,9.6-8.7,19.1-11.9,19.6
	c-0.6,0.1-1.2-0.1-1.5-0.6c-0.6-1-1.7-1.7-2.9-1.9c-2.6-0.4-5.2,1.7-5.2,1.8L324.1,68.4z"/>
<path class="st8" d="M276.9,599.3L1.2,599.6c-0.7,0-1.2-0.5-1.2-1.2c0-0.7,0.5-1.2,1.2-1.2l275.8-0.3c0.7,0,1.2,0.5,1.2,1.2
	C278.1,598.8,277.6,599.3,276.9,599.3C276.9,599.3,276.9,599.3,276.9,599.3z"/>
</svg>
